<svg xmlns="http://www.w3.org/2000/svg" viewBox="0 0 64 64" fill="none">
  <defs>
    <linearGradient id="bgGrad" x1="0%" y1="0%" x2="100%" y2="100%">
      <stop offset="0%" stop-color="#14161D" />
      <stop offset="100%" stop-color="#050608" />
    </linearGradient>
    <linearGradient id="yellowGrad" x1="0%" y1="0%" x2="100%" y2="100%">
      <stop offset="0%" stop-color="#FFF066" />
      <stop offset="60%" stop-color="#F5C518" />
      <stop offset="100%" stop-color="#D99B00" />
    </linearGradient>
  </defs>

  <!-- Deep Black Square Base with Rounded Corners -->
  <rect width="64" height="64" rx="16" fill="url(#bgGrad)" stroke="#F5C518" stroke-width="2" stroke-opacity="0.5" />

  <!-- Monogram JSN Stylized Mark -->
  <!-- J Hook in Gold -->
  <path d="M34 14H46V38C46 44.6274 40.6274 50 34 50C27.3726 50 22 44.6274 22 38C22 36.3431 23.3431 35 25 35C26.6569 35 28 36.3431 28 38C28 41.3137 30.6863 44 34 44C37.3137 44 40 41.3137 40 38V20H34C32.3431 20 31 18.6569 31 17C31 15.3431 32.3431 14 34 14Z" fill="url(#yellowGrad)" />
  
  <!-- Creative accent node in White -->
  <circle cx="46" cy="14" r="3.5" fill="#FFFFFF" />
  
  <!-- Secondary accent in White -->
  <rect x="15" y="19" width="10" height="5" rx="2.5" fill="#FFFFFF" fill-opacity="0.9" />
</svg>